<svg xmlns="http://www.w3.org/2000/svg" viewBox="0 0 554 176.5">
  <g transform="translate(-476, -57.25)">
    <path d="M551.6,58.5l-74.6,0c-0.3,0,-0.6,0.2,-0.6,0.5v174.4c0,0.3,0.3,0.5,0.6,0.5h30.2c0.3,0,0.5,-0.3,0.5,-0.5l0,-155.5c0,-0.2,0.1,-0.3,0.2,-0.3l34.6,-0.1c12.6,0,19.5,12.7,19.5,35.7c0,23,-6.9,35.7,-19.5,35.7l-20.8,0c-0.3,0,-0.5,0.2,-0.5,0.5v18.1c0,0.3,0.2,0.6,0.5,0.6h29.8c10.5,0,20.8,-4.9,28.3,-13.3c8.8,-9.9,13.4,-24.3,13.4,-41.5C593.3,80.1,577,58.5,551.6,58.5"/>
  </g>
  <g transform="translate(-792, -57.25)">
    <path d="M992.1,131.5l-14.9-1.1c-11.2-1-19.5-7.2-19.5-25.4c0-21.4,9.6-27.2,22.4-27.2h41.2c0.3,0,0.5-0.2,0.5-0.5V59c0-0.3-0.3-0.5-0.5-0.5h-0.8h0l-44.7,0c-28.1,0-48.1,16.5-48.1,49.4v1.4c0,26,16,44.7,39.8,46.6l14.8,1.1c11.3,0.9,18.3,11,18.3,26.3v4.3c0,9.6-2.4,27.1-23,27.1h-42h-0.8c-0.3,0-0.5,0.3-0.5,0.6v18.1c0,0.3,0.3,0.5,0.5,0.5H988c16.4,0,43.8-6.6,43.8-51.2c0-16.2-3.7-28.9-11.1-38.1C1014.4,136.7,1005,132.5,992.1,131.5"/>
  </g>
  <g transform="translate(-1453.75, -57.25)">
    <polygon points="1710.9,57.4 1733.9,57.4 1787.5,214.4 1788,214.4 1841.4,57.4 1864.4,57.4 1801.1,234 1773.7,234"/>
    <path d="M1882.6,57.4h60.8c31.2,0,54.9,13.8,54.9,46.7c0,20-11.4,35.6-32.6,41.1v0.5c13.4,3.2,19.5,11.9,25.7,33.1c5.7,19.5,10.6,35.9,16.6,55.1h-23c-4-14.1-10.4-39.3-13.8-51.4c-6.4-21.3-11.1-27.9-38.6-27.9h-28.4V234h-21.5V57.4z M1904.1,136.5h34.1c23.7,0,38.6-9.4,38.6-31.2c0-25-18.5-29.9-37.1-29.9h-35.6V136.5z"/>
  </g>
</svg>