<?xml version="1.0"?><svg version="1.1" id="svg7171" xmlns="http://www.w3.org/2000/svg" xmlns:xlink="http://www.w3.org/1999/xlink" x="0px" y="0px" viewBox="0 0 823.3 150.5" style="enable-background:new 0 0 823.3 150.5;" xml:space="preserve">

<namedview bordercolor="#666666" borderopacity="1" gridtolerance="10" guidetolerance="10" id="namedview7177" objecttolerance="10" pagecolor="#ffffff" showgrid="false">
&#x9;</namedview>
<path id="path7175" class="st0" d="M768.9,114.2l-85.5,0l-14.8,28.3h-19.4  c0,0,60.6-114.7,63-118.6c2.4-3.9,9.3-16.3,20.5-15.7c11.2,0.6,15.8,9.1,17.9,12.7c2.1,3.6,64.7,121.6,64.7,121.6h-31.1L768.9,114.2  L768.9,114.2z M732.3,46.3c-2.7-5.4-8.8-6.8-12.2-0.4c-1.4,2.6-27.5,51.7-27.5,51.7l67.4,0L732.3,46.3z M622.9,24.3l0.1,117h-27.8  V24.4l-52.8-0.1V8.1L675.9,8l-0.1,16.4L622.9,24.3z M496,8.8h28.3V142H496V8.8z M394.9,142.4c-11.1-0.6-15.8-9.1-17.9-12.7  S312.5,8.4,312.5,8.4h31.1l51.7,96c2.7,5.4,8.8,6.8,12.1,0.4c2.7-5.1,51.4-96.4,51.4-96.4h19.4c0,0-60.5,114.5-62.9,118.4  C413,130.7,406.1,143,394.9,142.4L394.9,142.4z M232.1,44.8v61c0,22.3-10,36.2-37.9,36.2h-59.8v-16.5h52.1c10.7,0,17-8.7,17-19.7  v-61c0-19.4,9.4-36.2,37.1-36.2h59.4V25h-51.4C234.9,24.4,232.1,35.8,232.1,44.8z M114.8,82.5h-64c-8.8,0-15.2,6.7-15.2,18.1v41.5H8  v-40c0-22.5,14.1-37.6,34.1-37.6h64.7c15.9-0.6,19.6-8.5,19.6-19.9c0-8.8-4.4-20.7-19.6-19.5H8V8.5h106.8c28,0,39.1,16.2,39.1,36  C153.9,67,142.8,82.5,114.8,82.5z"></path>
</svg>